# xmcd
#
# Track frame offsets: 
#        150
#        14385
#        26048
#        36660
#        49455
#        61807
#        73839
#        87932
#        98211
#        102833
#        117520
#        130930
#        144081
#        156659
#        170613
#        185018
#        195961
#        253663
#        332550
#
# Disc length: 4440 seconds
#
# Revision: 3
# Processed by: cddbd v1.5.2PL0 Copyright (c) Steve Scherf et al.
# Submitted via: ExactAudioCopy v1.0b3
#
DISCID=18115613
DTITLE=FromSoftware - ARMORED CORE NEXUS ORIGINAL SOUNDTRACK DISC2 REV
DTITLE=OLUTION
DYEAR=2004
DGENRE=Game
TTITLE0=Whiz Drop nutty
TTITLE1=Detect but miss
TTITLE2=Insurance Money ver.sil
TTITLE3=Complete Physical tek
TTITLE4=Mode cut up version
TTITLE5=In My Heart more heart
TTITLE6=9 memories
TTITLE7=Another Age left turn
TTITLE8=Shape Memory Alloys 2
TTITLE9=Firework circuit edit
TTITLE10=Grip the otherside
TTITLE11=Circulation all over
TTITLE12=Super Monkey Likes Daddy
TTITLE13=Apex In Circle extended
TTITLE14=Artificial Sky tribal
TTITLE15=Silent Line remix
TTITLE16=The Revolution Mix
TTITLE17=Data1
TTITLE18=Data2
EXTD=YEAR: 2004
EXTT0=
EXTT1=
EXTT2=
EXTT3=
EXTT4=
EXTT5=
EXTT6=
EXTT7=
EXTT8=
EXTT9=
EXTT10=
EXTT11=
EXTT12=
EXTT13=
EXTT14=
EXTT15=
EXTT16=
EXTT17=
EXTT18=
PLAYORDER=
